<?xml version="1.0" encoding="utf-8"?>
<!-- Generator: Adobe Illustrator 24.1.2, SVG Export Plug-In . SVG Version: 6.00 Build 0)  -->
<svg version="1.1" id="Capa_1" xmlns="http://www.w3.org/2000/svg" xmlns:xlink="http://www.w3.org/1999/xlink" x="0px" y="0px"
	 viewBox="0 0 500 500" style="enable-background:new 0 0 500 500;" xml:space="preserve">
<style type="text/css">
	.st0{fill:url(#SVGID_1_);}
	.st1{fill:#FFD208;}
</style>
<g>
	<radialGradient id="SVGID_1_" cx="99.9302" cy="277.4167" r="247.0076" gradientUnits="userSpaceOnUse">
		<stop  offset="0.2182" style="stop-color:#F39428"/>
		<stop  offset="0.7833" style="stop-color:#FFD106"/>
	</radialGradient>
	<path class="st0" d="M278,14.9L278,14.9c-15.5,0-28.1,12.6-28.1,28.1v201.5c-20.1-14.1-44.2-22.7-70.2-23.6
		c-21.3-0.8-41.4,3.6-59.4,11.8c-17,7.8-21.1,30.1-7.8,43.4l1.9,1.9c8,8,20,9.9,30.3,5.3c10.3-4.6,21.8-6.9,34-6.3
		c37.7,1.8,68.7,32.3,71,70c2.8,45.2-34.4,82.4-79.6,79.6c-37.7-2.4-68.1-33.3-70-71c-0.6-12.1,1.7-23.7,6.3-34
		c4.6-10.3,2.7-22.3-5.3-30.3l-1.9-1.9c-13.2-13.2-35.6-9.2-43.4,7.8c-8.3,18-12.6,38.1-11.8,59.4c2.4,68.4,58.2,124,126.6,126.3
		c74.4,2.4,135.3-57.2,135.3-131h0V43C306.1,27.5,293.5,14.9,278,14.9z"/>
	<path class="st1" d="M352.9,52.4L352.9,52.4c-15.5,0-28.1,12.6-28.1,28.1v243.4c0,15.5,12.6,28.1,28.1,28.1l0,0
		c15.5,0,28.1-12.6,28.1-28.1V80.5C381,65,368.4,52.4,352.9,52.4z"/>
	<path class="st1" d="M427.8,127.3L427.8,127.3c-15.5,0-28.1,12.6-28.1,28.1v187.2c0,15.5,12.6,28.1,28.1,28.1l0,0
		c15.5,0,28.1-12.6,28.1-28.1V155.4C455.9,139.9,443.3,127.3,427.8,127.3z"/>
</g>
</svg>
