<?xml version="1.0" encoding="utf-8"?>
<!-- Generator: Adobe Illustrator 23.1.1, SVG Export Plug-In . SVG Version: 6.00 Build 0)  -->
<svg version="1.1" xmlns="http://www.w3.org/2000/svg" xmlns:xlink="http://www.w3.org/1999/xlink" x="0px" y="0px"
	 viewBox="0 0 1134 567" style="enable-background:new 0 0 1134 567;" xml:space="preserve">
<style type="text/css">
	.st0{display:none;}
	.st1{fill:#0C479D;}
	.st2{fill-rule:evenodd;clip-rule:evenodd;fill:#FFFFFF;}
	.st3{fill-rule:evenodd;clip-rule:evenodd;}
</style>
<g id="Fondo">
</g>
<g id="GuÌas" class="st0">
</g>
<g id="Primer_plano">
	<g>
		<g>
			<g>
				<ellipse class="st1" cx="210.75" cy="210.77" rx="139.88" ry="139.83"/>
				<path class="st1" d="M210.75,210.77"/>
			</g>
			<path class="st2" d="M184.5,263.19v-43.65h52.42v43.65c0,9.63,7.85,17.44,17.54,17.44c9.69,0,17.54-7.81,17.54-17.44V140.9
				h-35.08v52.42H184.5V140.9h-34.88v122.29c0,9.63,7.81,17.44,17.44,17.44C176.69,280.63,184.5,272.82,184.5,263.19z"/>
		</g>
		<g>
			<polygon class="st3" points="450.68,280.93 450.68,219.54 503.94,219.54 503.94,280.93 533.96,280.93 533.96,141.11 
				503.55,141.11 503.55,196.3 450.68,196.3 450.68,141.11 420.67,141.11 420.67,280.93 			"/>
			<path class="st3" d="M648.92,240.07c0-6.39,0-12.59-0.77-18.59c-0.77-6.2-2.13-12.01-4.84-17.43
				c-8.13-17.04-23.24-23.24-41.44-23.24c-29.63,0-46.67,22.46-46.67,51.71c0,32.54,13.36,51.32,46.67,51.32
				c22.66,0,41.44-7.94,43.96-31.95h-26.14c-2.71,8.91-7.75,12.59-17.82,12.59c-14.91,0-16.65-11.81-16.65-24.4H648.92z
				 M585.21,220.7c0.39-10.65,3.29-20.53,16.65-20.53c14.14,0,17.04,9.88,17.04,20.53H585.21z"/>
			<path class="st3" d="M699.56,232.32c0-13.36,5.23-32.15,20.92-32.15c18.59,0,20.92,17.24,20.92,32.15
				c0,14.91-2.32,32.15-20.92,32.15C704.79,264.47,699.56,245.69,699.56,232.32z M670.51,261.57c0,6.39-0.58,12.98-0.97,19.37h29.05
				c0.39-4.65,0.77-9.1,0.77-13.75h0.39c6.39,11.43,17.23,16.65,29.82,16.65c28.47,0,41.83-26.53,41.83-51.52
				c0-26.14-15.3-51.51-45.51-51.51c-10.07,0-20.53,6-25.95,14.14h-0.39v-53.84h-29.05V261.57z"/>
			<path class="st3" d="M790.89,183.72c0.39,7.17,0.97,15.3,0.97,19.37l0.19,77.85h28.85v-48.22c0.2-6.39,0.78-11.81,3.87-17.24
				c2.9-4.07,9.3-6.78,14.14-7.17h12.59v-25.76c-14.52-0.39-26.92,3.48-33.11,18.79H818l-0.58-17.62H790.89z"/>
			<path class="st3" d="M962.03,232.32c0-30.6-18.98-51.51-50.74-51.51c-31.76,0-50.74,20.92-50.74,51.51
				c0,30.6,18.98,51.52,50.74,51.52C943.06,283.84,962.03,262.92,962.03,232.32z M890.57,232.32c0-15.49,2.9-32.15,20.72-32.15
				c17.82,0,20.72,16.66,20.72,32.15c0,15.49-2.9,32.15-20.72,32.15C893.48,264.47,890.57,247.82,890.57,232.32z"/>
			<path class="st3" d="M1011.93,183.72h-28.86v97.22h29.05v-58.49c0.39-14.14,8.33-22.27,17.43-22.27
				c14.33,0,17.24,11.81,17.43,22.27v58.49h29.05v-63.33c0-3.29-0.39-9.49-1.94-15.49c-3.48-14.14-22.27-21.3-31.95-21.3
				c-14.72,0-23.82,5.81-29.83,14.72l-0.39-0.58V183.72z"/>
		</g>
		<g>
			<g>
				<path class="st3" d="M443.07,455.47v4.36h13.14v16.92c-3.7,1.09-7.7,2.18-11.62,2.18c-14.16,0-19.75-9.59-19.75-22.95
					c0-10.89,4.72-22.95,17.28-22.95c6.25,0,12.13,2.98,13.07,9.66h5.37c-0.8-9.3-9.73-14.02-18.45-14.02
					c-15.18,0-22.37,13.8-22.37,27.31c0,16.12,8.06,27.31,22.37,27.31c6.75,0,12.49-0.8,18.81-3.27v-24.55H443.07z"/>
				<path class="st3" d="M477.69,460.26c0.15-6.97,3.56-11.62,10.02-11.62c0.87,0,1.82,0.22,2.69,0.29v-4.21
					c-1.45-0.07-2.91-0.15-4.36-0.07c-3.63,0.15-6.9,2.76-8.21,6.46h-0.15l-0.22-5.37h-4.5c0.15,2.47,0.44,5.37,0.36,8.21v28.25
					h4.36V460.26z"/>
				<path class="st3" d="M524.14,463.96c0,6.75-3.49,15.32-12.27,15.32c-8.79,0-12.27-8.57-12.27-15.32
					c0-6.75,3.49-15.32,12.27-15.32C520.65,448.64,524.14,457.21,524.14,463.96z M511.87,444.64c-11.62,0-16.99,9.73-16.99,19.32
					c0,9.59,5.37,19.32,16.99,19.32c11.62,0,16.99-9.73,16.99-19.32C528.86,454.38,523.49,444.64,511.87,444.64z"/>
				<path class="st3" d="M562.24,466.72c0,6.54-3.27,12.56-10.46,12.56c-5.96,0-9.59-3.7-9.59-10.02v-23.53h-4.36v22.8
					c0,4.21,0.94,14.74,12.85,14.74c4.72,0,8.86-2.11,11.4-6.61l0.15,0.15l0.22,5.37h4.5c-0.15-2.47-0.36-5.37-0.36-8.21v-28.25
					h-4.36V466.72z"/>
				<path class="st3" d="M581.82,463.09c0-7.41,3.27-14.45,11.77-14.45c8.28,0,11.11,7.7,11.11,14.67c0,6.75-2.11,15.98-10.46,15.98
					C584.72,479.29,581.82,471.37,581.82,463.09z M581.82,476.53h0.15c2.98,4.36,7.41,6.75,12.71,6.75
					c10.6,0,14.74-10.31,14.74-19.46c0-9.44-4.14-19.17-14.96-19.17c-4.87,0-9.95,2.32-12.49,6.61l-0.15-0.15l-0.22-5.37h-4.5
					c0.15,2.47,0.44,5.37,0.36,8.21v42.19h4.36V476.53z"/>
				<path class="st3" d="M677.34,442.03c-0.73-9.44-8.86-13.36-17.43-13.36c-15.83,0-22.58,12.93-22.58,27.31
					c0,14.52,6.68,27.31,22.58,27.31c8.43,0,16.49-5.01,18.01-13.8h-5.08c-1.31,6.54-7.12,9.44-12.93,9.44
					c-13.43,0-17.5-12.2-17.5-22.95c0-10.75,4.07-22.95,17.5-22.95c5.96,0,11.47,2.61,12.35,9.01H677.34z"/>
				<path class="st3" d="M713.79,463.96c0,6.75-3.49,15.32-12.27,15.32c-8.79,0-12.27-8.57-12.27-15.32
					c0-6.75,3.49-15.32,12.27-15.32C710.3,448.64,713.79,457.21,713.79,463.96z M701.52,444.64c-11.62,0-16.99,9.73-16.99,19.32
					c0,9.59,5.37,19.32,16.99,19.32c11.62,0,16.99-9.73,16.99-19.32C718.51,454.38,713.14,444.64,701.52,444.64z"/>
				<path class="st3" d="M731.55,445.73h-4.5c0.15,2.47,0.36,5.37,0.36,8.21v28.25h4.36V461.2c0-6.54,3.27-12.56,10.46-12.56
					c5.96,0,9.59,3.7,9.59,10.02v23.53h4.36V461.2c0-6.54,3.27-12.56,10.46-12.56c5.96,0,9.59,3.7,9.59,10.02v23.53h4.36v-22.8
					c0-4.21-0.94-14.74-12.85-14.74c-5.66,0-9.88,3.7-12.56,7.99c-1.6-4.79-6.1-7.99-11.84-7.99c-4.72,0-8.86,2.11-11.4,6.61
					l-0.15-0.15L731.55,445.73z"/>
				<path class="st3" d="M795.65,463.09c0-7.41,3.27-14.45,11.77-14.45c8.28,0,11.11,7.7,11.11,14.67c0,6.75-2.11,15.98-10.46,15.98
					C798.56,479.29,795.65,471.37,795.65,463.09z M795.65,476.53h0.15c2.98,4.36,7.41,6.75,12.71,6.75
					c10.6,0,14.74-10.31,14.74-19.46c0-9.44-4.14-19.17-14.96-19.17c-4.87,0-9.95,2.32-12.49,6.61l-0.15-0.15l-0.22-5.37h-4.5
					c0.15,2.47,0.44,5.37,0.36,8.21v42.19h4.36V476.53z"/>
				<path class="st3" d="M833.89,472.02c0-9.15,12.93-7.99,19.1-8.21c0.44,7.63-1.38,15.47-10.89,15.47
					C837.67,479.29,833.89,476.96,833.89,472.02z M852.99,459.82c-5.3,0.29-11.62-0.44-16.49,1.67c-4.36,1.82-7.33,5.59-7.33,10.53
					c0,7.12,5.37,11.26,12.13,11.26c4.94,0,9.8-2.9,11.4-5.96l0.22-0.51h0.15l0.15,5.37h4.5c-0.15-2.47-0.44-5.37-0.36-8.21V456.7
					c0.15-8.35-4.87-12.06-12.93-12.06c-6.97,0-12.56,2.83-13.65,10.31h4.65c0.58-4.94,4.36-6.32,8.93-6.32
					c5.16,0,8.21,1.89,8.64,7.84V459.82z"/>
				<path class="st3" d="M873.04,461.2c0-6.54,3.27-12.56,10.46-12.56c5.96,0,9.59,3.7,9.59,10.02v23.53h4.36v-22.8
					c0-4.21-0.94-14.74-12.85-14.74c-4.72,0-8.86,2.11-11.4,6.61l-0.15-0.15l-0.22-5.37h-4.5c0.15,2.47,0.36,5.37,0.36,8.21v28.25
					h4.36V461.2z"/>
				<polygon class="st3" points="903.8,445.73 918.91,482.19 913.39,496.13 918.18,496.13 938.3,445.73 933.58,445.73 
					921.37,476.23 909.1,445.73 				"/>
			</g>
			<g>
				<path class="st3" d="M427.68,384.73l11.55-29.56l11.33,29.56H427.68z M420.63,403.25l5.52-14.16h26.07l5.59,14.16h5.16
					l-20.91-52.43h-5.52l-20.77,52.43H420.63z"/>
				<path class="st3" d="M473.71,382.26c0-6.54,3.27-12.56,10.46-12.56c5.96,0,9.59,3.7,9.59,10.02v23.53h4.36v-22.8
					c0-4.21-0.94-14.74-12.85-14.74c-4.72,0-8.86,2.11-11.4,6.61l-0.15-0.15l-0.22-5.37h-4.5c0.15,2.47,0.36,5.37,0.36,8.21v28.25
					h4.36V382.26z"/>
				<path class="st3" d="M534.01,377.03c0-11.47,5.23-22.95,18.3-22.95c13.07,0,18.3,11.47,18.3,22.95
					c0,11.47-5.23,22.95-18.3,22.95C539.24,399.98,534.01,388.5,534.01,377.03z M575.7,377.03c0-16.34-8.35-27.31-23.38-27.31
					c-15.03,0-23.38,10.97-23.38,27.31c0,16.34,8.35,27.31,23.38,27.31C567.34,404.34,575.7,393.37,575.7,377.03z"/>
				<path class="st3" d="M589.47,393.52c0,4.94-0.51,10.82,8.71,10.82c1.45,0,3.05-0.29,4.43-0.65v-3.78
					c-1.16,0.36-2.47,0.44-3.78,0.44c-3.34,0-5.08-1.82-5.01-5.16v-24.4h8.28v-3.99h-8.28v-9.66l-4.36,1.89v7.77h-7.26v3.99h7.26
					V393.52z"/>
				<path class="st3" d="M609.27,375.87c0,6.75,5.81,8.42,11.55,9.8c5.81,1.31,11.55,2.18,11.55,7.41c0,5.08-4.87,7.26-9.51,7.26
					c-4.94,0-9.73-1.6-10.1-7.04h-4.72c0.15,8.06,7.41,11.04,13.73,11.04c7.7,0,15.32-3.7,15.32-11.91c0-3.92-2.4-7.19-6.17-8.5
					c-9.88-3.49-16.92-2.98-16.92-8.35c0-4.29,4.14-5.88,8.21-5.88c4.5,0,8.57,1.53,9.01,6.1h4.72c-0.58-7.7-6.39-10.09-13.29-10.09
					C616.24,365.7,609.27,368.32,609.27,375.87z"/>
				<path class="st3" d="M671.21,387.78c0,6.54-3.27,12.56-10.46,12.56c-5.96,0-9.59-3.7-9.59-10.02v-23.53h-4.36v22.8
					c0,4.21,0.94,14.74,12.85,14.74c4.72,0,8.86-2.11,11.4-6.61l0.15,0.15l0.22,5.37h4.5c-0.15-2.47-0.36-5.37-0.36-8.21v-28.25
					h-4.36V387.78z"/>
				<polygon class="st3" points="691.95,350.81 687.6,350.81 687.6,403.25 691.95,403.25 691.95,383.49 711.13,403.25 
					716.64,403.25 696.75,382.55 715.19,366.79 709.6,366.79 691.95,381.68 				"/>
				<path class="st3" d="M724.99,393.08c0-9.15,12.93-7.99,19.1-8.21c0.44,7.63-1.38,15.47-10.89,15.47
					C728.77,400.34,724.99,398.02,724.99,393.08z M744.09,380.88c-5.3,0.29-11.62-0.44-16.49,1.67c-4.36,1.82-7.33,5.59-7.33,10.53
					c0,7.12,5.37,11.26,12.13,11.26c4.94,0,9.8-2.9,11.4-5.96l0.22-0.51h0.15l0.15,5.37h4.5c-0.15-2.47-0.44-5.37-0.36-8.21v-17.28
					c0.15-8.35-4.87-12.06-12.93-12.06c-6.97,0-12.56,2.83-13.65,10.31h4.65c0.58-4.94,4.36-6.32,8.93-6.32
					c5.16,0,8.21,1.89,8.64,7.84V380.88z"/>
				<path class="st3" d="M818.58,363.09c-0.73-9.44-8.86-13.36-17.43-13.36c-15.83,0-22.58,12.93-22.58,27.31
					c0,14.52,6.68,27.31,22.58,27.31c8.43,0,16.49-5.01,18.01-13.8h-5.08c-1.31,6.54-7.12,9.44-12.93,9.44
					c-13.43,0-17.5-12.2-17.5-22.95c0-10.75,4.07-22.95,17.5-22.95c5.96,0,11.47,2.61,12.35,9.01H818.58z"/>
				<path class="st3" d="M832.73,350.81h-4.36v52.43h4.36v-20.99c0-6.54,3.27-12.56,10.46-12.56c5.96,0,9.59,3.7,9.59,10.02v23.53
					h4.36v-22.8c0-4.21-0.94-14.74-12.85-14.74c-4.72,0-8.86,2.11-11.4,6.61h-0.15V350.81z"/>
				<path class="st3" d="M899.45,386.04c0-11.4-4.43-20.33-16.63-20.33c-10.82,0-16.27,9.44-16.27,19.32
					c0,9.95,5.08,19.32,15.98,19.32c8.79,0,14.23-3.99,16.48-12.71h-4.57c-1.09,5.01-5.37,8.72-10.53,8.72
					c-8.93,0-12.49-6.54-12.64-14.31H899.45z M871.41,382.04c0.58-6.39,4.36-12.35,11.47-12.35c7.55,0,11.33,5.3,11.84,12.35H871.41
					z"/>
				<path class="st3" d="M913.14,366.79h-4.5c0.15,2.47,0.36,5.37,0.36,8.21v28.25h4.36v-20.99c0-6.54,3.27-12.56,10.46-12.56
					c5.96,0,9.59,3.7,9.59,10.02v23.53h4.36v-20.99c0-6.54,3.27-12.56,10.46-12.56c5.96,0,9.59,3.7,9.59,10.02v23.53h4.36v-22.8
					c0-4.21-0.94-14.74-12.85-14.74c-5.66,0-9.88,3.7-12.56,7.99c-1.6-4.79-6.1-7.99-11.84-7.99c-4.72,0-8.86,2.11-11.4,6.61
					l-0.15-0.15L913.14,366.79z"/>
				<path class="st3" d="M973.68,366.79v36.46h4.36v-36.46H973.68z M978.4,350.81h-5.08v5.45h5.08V350.81z"/>
				<path class="st3" d="M1017.45,377.97c-0.36-7.77-6.46-12.27-13.94-12.27c-10.82,0-16.27,9.44-16.27,19.32
					c0,9.95,5.08,19.32,15.98,19.32c8.28,0,13.07-4.14,14.23-12.49h-4.72c-0.36,5.01-4.29,8.5-9.95,8.5
					c-6.68,0-10.82-7.04-10.82-15.4c0-8.28,4.14-15.25,10.82-15.25c6.03,0,9.59,2.69,9.95,8.28H1017.45z"/>
				<path class="st3" d="M1027.54,393.08c0-9.15,12.93-7.99,19.1-8.21c0.44,7.63-1.38,15.47-10.89,15.47
					C1031.32,400.34,1027.54,398.02,1027.54,393.08z M1046.64,380.88c-5.3,0.29-11.62-0.44-16.49,1.67
					c-4.36,1.82-7.33,5.59-7.33,10.53c0,7.12,5.37,11.26,12.13,11.26c4.94,0,9.8-2.9,11.4-5.96l0.22-0.51h0.15l0.15,5.37h4.5
					c-0.15-2.47-0.44-5.37-0.36-8.21v-17.28c0.15-8.35-4.87-12.06-12.93-12.06c-6.97,0-12.56,2.83-13.65,10.31h4.65
					c0.58-4.94,4.36-6.32,8.93-6.32c5.16,0,8.21,1.89,8.64,7.84V380.88z"/>
				<rect x="1062.4" y="350.81" class="st3" width="4.36" height="52.43"/>
			</g>
		</g>
	</g>
</g>
</svg>
